{
	"patcher" : 	{
		"fileversion" : 1,
		"appversion" : 		{
			"major" : 7,
			"minor" : 2,
			"revision" : 5,
			"architecture" : "x64",
			"modernui" : 1
		}
,
		"rect" : [ 63.0, 104.0, 640.0, 480.0 ],
		"bglocked" : 0,
		"openinpresentation" : 0,
		"default_fontsize" : 12.0,
		"default_fontface" : 0,
		"default_fontname" : "Arial",
		"gridonopen" : 1,
		"gridsize" : [ 15.0, 15.0 ],
		"gridsnaponopen" : 1,
		"objectsnaponopen" : 1,
		"statusbarvisible" : 2,
		"toolbarvisible" : 1,
		"lefttoolbarpinned" : 0,
		"toptoolbarpinned" : 0,
		"righttoolbarpinned" : 0,
		"bottomtoolbarpinned" : 0,
		"toolbars_unpinned_last_save" : 0,
		"tallnewobj" : 0,
		"boxanimatetime" : 200,
		"enablehscroll" : 1,
		"enablevscroll" : 1,
		"devicewidth" : 0.0,
		"description" : "",
		"digest" : "",
		"tags" : "",
		"style" : "",
		"subpatcher_template" : "",
		"boxes" : [ 			{
				"box" : 				{
					"id" : "obj-42",
					"maxclass" : "newobj",
					"numinlets" : 1,
					"numoutlets" : 4,
					"outlettype" : [ "", "", "", "" ],
					"patching_rect" : [ 219.0, 634.0, 121.0, 22.0 ],
					"style" : "",
					"text" : "j.remote oscreceive8"
				}

			}
, 			{
				"box" : 				{
					"id" : "obj-43",
					"maxclass" : "newobj",
					"numinlets" : 2,
					"numoutlets" : 2,
					"outlettype" : [ "", "" ],
					"patching_rect" : [ 517.0, 634.0, 61.0, 22.0 ],
					"style" : "",
					"text" : "route text"
				}

			}
, 			{
				"box" : 				{
					"id" : "obj-44",
					"maxclass" : "newobj",
					"numinlets" : 1,
					"numoutlets" : 4,
					"outlettype" : [ "", "", "", "" ],
					"patching_rect" : [ 517.0, 664.0, 105.0, 22.0 ],
					"style" : "",
					"text" : "j.remote oscdest8"
				}

			}
, 			{
				"box" : 				{
					"args" : [ "#0-route1" ],
					"bgmode" : 0,
					"border" : 0,
					"clickthrough" : 0,
					"enablehscroll" : 0,
					"enablevscroll" : 0,
					"id" : "obj-45",
					"lockeddragscroll" : 0,
					"maxclass" : "bpatcher",
					"name" : "j.nav.oscroute.module.maxpat",
					"numinlets" : 1,
					"numoutlets" : 2,
					"offset" : [ 0.0, 0.0 ],
					"outlettype" : [ "", "" ],
					"patching_rect" : [ 47.0, 634.0, 170.0, 23.0 ],
					"viewvisibility" : 1
				}

			}
, 			{
				"box" : 				{
					"annotation" : "none",
					"clickmode" : 1,
					"fontname" : "Verdana",
					"fontsize" : 10.0,
					"id" : "obj-46",
					"keymode" : 1,
					"maxclass" : "textedit",
					"numinlets" : 1,
					"numoutlets" : 4,
					"outlettype" : [ "", "int", "", "" ],
					"outputmode" : 1,
					"parameter_enable" : 0,
					"patching_rect" : [ 360.0, 634.0, 151.0, 19.0 ],
					"style" : "",
					"text" : "none"
				}

			}
, 			{
				"box" : 				{
					"id" : "obj-47",
					"maxclass" : "newobj",
					"numinlets" : 1,
					"numoutlets" : 4,
					"outlettype" : [ "", "", "", "" ],
					"patching_rect" : [ 219.0, 559.0, 121.0, 22.0 ],
					"style" : "",
					"text" : "j.remote oscreceive7"
				}

			}
, 			{
				"box" : 				{
					"id" : "obj-48",
					"maxclass" : "newobj",
					"numinlets" : 2,
					"numoutlets" : 2,
					"outlettype" : [ "", "" ],
					"patching_rect" : [ 517.0, 559.0, 61.0, 22.0 ],
					"style" : "",
					"text" : "route text"
				}

			}
, 			{
				"box" : 				{
					"id" : "obj-49",
					"maxclass" : "newobj",
					"numinlets" : 1,
					"numoutlets" : 4,
					"outlettype" : [ "", "", "", "" ],
					"patching_rect" : [ 517.0, 589.0, 105.0, 22.0 ],
					"style" : "",
					"text" : "j.remote oscdest7"
				}

			}
, 			{
				"box" : 				{
					"args" : [ "#0-route1" ],
					"bgmode" : 0,
					"border" : 0,
					"clickthrough" : 0,
					"enablehscroll" : 0,
					"enablevscroll" : 0,
					"id" : "obj-50",
					"lockeddragscroll" : 0,
					"maxclass" : "bpatcher",
					"name" : "j.nav.oscroute.module.maxpat",
					"numinlets" : 1,
					"numoutlets" : 2,
					"offset" : [ 0.0, 0.0 ],
					"outlettype" : [ "", "" ],
					"patching_rect" : [ 47.0, 559.0, 170.0, 23.0 ],
					"viewvisibility" : 1
				}

			}
, 			{
				"box" : 				{
					"annotation" : "none",
					"clickmode" : 1,
					"fontname" : "Verdana",
					"fontsize" : 10.0,
					"id" : "obj-51",
					"keymode" : 1,
					"maxclass" : "textedit",
					"numinlets" : 1,
					"numoutlets" : 4,
					"outlettype" : [ "", "int", "", "" ],
					"outputmode" : 1,
					"parameter_enable" : 0,
					"patching_rect" : [ 360.0, 559.0, 151.0, 19.0 ],
					"style" : "",
					"text" : "none"
				}

			}
, 			{
				"box" : 				{
					"id" : "obj-52",
					"maxclass" : "newobj",
					"numinlets" : 1,
					"numoutlets" : 4,
					"outlettype" : [ "", "", "", "" ],
					"patching_rect" : [ 219.0, 484.0, 121.0, 22.0 ],
					"style" : "",
					"text" : "j.remote oscreceive6"
				}

			}
, 			{
				"box" : 				{
					"id" : "obj-53",
					"maxclass" : "newobj",
					"numinlets" : 2,
					"numoutlets" : 2,
					"outlettype" : [ "", "" ],
					"patching_rect" : [ 517.0, 484.0, 61.0, 22.0 ],
					"style" : "",
					"text" : "route text"
				}

			}
, 			{
				"box" : 				{
					"id" : "obj-54",
					"maxclass" : "newobj",
					"numinlets" : 1,
					"numoutlets" : 4,
					"outlettype" : [ "", "", "", "" ],
					"patching_rect" : [ 517.0, 514.0, 105.0, 22.0 ],
					"style" : "",
					"text" : "j.remote oscdest6"
				}

			}
, 			{
				"box" : 				{
					"args" : [ "#0-route1" ],
					"bgmode" : 0,
					"border" : 0,
					"clickthrough" : 0,
					"enablehscroll" : 0,
					"enablevscroll" : 0,
					"id" : "obj-55",
					"lockeddragscroll" : 0,
					"maxclass" : "bpatcher",
					"name" : "j.nav.oscroute.module.maxpat",
					"numinlets" : 1,
					"numoutlets" : 2,
					"offset" : [ 0.0, 0.0 ],
					"outlettype" : [ "", "" ],
					"patching_rect" : [ 47.0, 484.0, 170.0, 23.0 ],
					"viewvisibility" : 1
				}

			}
, 			{
				"box" : 				{
					"annotation" : "none",
					"clickmode" : 1,
					"fontname" : "Verdana",
					"fontsize" : 10.0,
					"id" : "obj-56",
					"keymode" : 1,
					"maxclass" : "textedit",
					"numinlets" : 1,
					"numoutlets" : 4,
					"outlettype" : [ "", "int", "", "" ],
					"outputmode" : 1,
					"parameter_enable" : 0,
					"patching_rect" : [ 360.0, 484.0, 151.0, 19.0 ],
					"style" : "",
					"text" : "none"
				}

			}
, 			{
				"box" : 				{
					"id" : "obj-57",
					"maxclass" : "newobj",
					"numinlets" : 1,
					"numoutlets" : 4,
					"outlettype" : [ "", "", "", "" ],
					"patching_rect" : [ 219.0, 405.0, 121.0, 22.0 ],
					"style" : "",
					"text" : "j.remote oscreceive5"
				}

			}
, 			{
				"box" : 				{
					"id" : "obj-58",
					"maxclass" : "newobj",
					"numinlets" : 2,
					"numoutlets" : 2,
					"outlettype" : [ "", "" ],
					"patching_rect" : [ 517.0, 405.0, 61.0, 22.0 ],
					"style" : "",
					"text" : "route text"
				}

			}
, 			{
				"box" : 				{
					"id" : "obj-59",
					"maxclass" : "newobj",
					"numinlets" : 1,
					"numoutlets" : 4,
					"outlettype" : [ "", "", "", "" ],
					"patching_rect" : [ 517.0, 435.0, 105.0, 22.0 ],
					"style" : "",
					"text" : "j.remote oscdest5"
				}

			}
, 			{
				"box" : 				{
					"args" : [ "#0-route1" ],
					"bgmode" : 0,
					"border" : 0,
					"clickthrough" : 0,
					"enablehscroll" : 0,
					"enablevscroll" : 0,
					"id" : "obj-60",
					"lockeddragscroll" : 0,
					"maxclass" : "bpatcher",
					"name" : "j.nav.oscroute.module.maxpat",
					"numinlets" : 1,
					"numoutlets" : 2,
					"offset" : [ 0.0, 0.0 ],
					"outlettype" : [ "", "" ],
					"patching_rect" : [ 47.0, 405.0, 170.0, 23.0 ],
					"viewvisibility" : 1
				}

			}
, 			{
				"box" : 				{
					"annotation" : "none",
					"clickmode" : 1,
					"fontname" : "Verdana",
					"fontsize" : 10.0,
					"id" : "obj-61",
					"keymode" : 1,
					"maxclass" : "textedit",
					"numinlets" : 1,
					"numoutlets" : 4,
					"outlettype" : [ "", "int", "", "" ],
					"outputmode" : 1,
					"parameter_enable" : 0,
					"patching_rect" : [ 360.0, 405.0, 151.0, 19.0 ],
					"style" : "",
					"text" : "none"
				}

			}
, 			{
				"box" : 				{
					"id" : "obj-37",
					"maxclass" : "newobj",
					"numinlets" : 1,
					"numoutlets" : 4,
					"outlettype" : [ "", "", "", "" ],
					"patching_rect" : [ 219.0, 330.0, 121.0, 22.0 ],
					"style" : "",
					"text" : "j.remote oscreceive4"
				}

			}
, 			{
				"box" : 				{
					"id" : "obj-38",
					"maxclass" : "newobj",
					"numinlets" : 2,
					"numoutlets" : 2,
					"outlettype" : [ "", "" ],
					"patching_rect" : [ 517.0, 330.0, 61.0, 22.0 ],
					"style" : "",
					"text" : "route text"
				}

			}
, 			{
				"box" : 				{
					"id" : "obj-39",
					"maxclass" : "newobj",
					"numinlets" : 1,
					"numoutlets" : 4,
					"outlettype" : [ "", "", "", "" ],
					"patching_rect" : [ 517.0, 360.0, 105.0, 22.0 ],
					"style" : "",
					"text" : "j.remote oscdest4"
				}

			}
, 			{
				"box" : 				{
					"args" : [ "#0-route1" ],
					"bgmode" : 0,
					"border" : 0,
					"clickthrough" : 0,
					"enablehscroll" : 0,
					"enablevscroll" : 0,
					"id" : "obj-40",
					"lockeddragscroll" : 0,
					"maxclass" : "bpatcher",
					"name" : "j.nav.oscroute.module.maxpat",
					"numinlets" : 1,
					"numoutlets" : 2,
					"offset" : [ 0.0, 0.0 ],
					"outlettype" : [ "", "" ],
					"patching_rect" : [ 47.0, 330.0, 170.0, 23.0 ],
					"viewvisibility" : 1
				}

			}
, 			{
				"box" : 				{
					"annotation" : "none",
					"clickmode" : 1,
					"fontname" : "Verdana",
					"fontsize" : 10.0,
					"id" : "obj-41",
					"keymode" : 1,
					"maxclass" : "textedit",
					"numinlets" : 1,
					"numoutlets" : 4,
					"outlettype" : [ "", "int", "", "" ],
					"outputmode" : 1,
					"parameter_enable" : 0,
					"patching_rect" : [ 360.0, 330.0, 151.0, 19.0 ],
					"style" : "",
					"text" : "none"
				}

			}
, 			{
				"box" : 				{
					"id" : "obj-32",
					"maxclass" : "newobj",
					"numinlets" : 1,
					"numoutlets" : 4,
					"outlettype" : [ "", "", "", "" ],
					"patching_rect" : [ 219.0, 255.0, 121.0, 22.0 ],
					"style" : "",
					"text" : "j.remote oscreceive3"
				}

			}
, 			{
				"box" : 				{
					"id" : "obj-33",
					"maxclass" : "newobj",
					"numinlets" : 2,
					"numoutlets" : 2,
					"outlettype" : [ "", "" ],
					"patching_rect" : [ 517.0, 255.0, 61.0, 22.0 ],
					"style" : "",
					"text" : "route text"
				}

			}
, 			{
				"box" : 				{
					"id" : "obj-34",
					"maxclass" : "newobj",
					"numinlets" : 1,
					"numoutlets" : 4,
					"outlettype" : [ "", "", "", "" ],
					"patching_rect" : [ 517.0, 285.0, 105.0, 22.0 ],
					"style" : "",
					"text" : "j.remote oscdest3"
				}

			}
, 			{
				"box" : 				{
					"args" : [ "#0-route1" ],
					"bgmode" : 0,
					"border" : 0,
					"clickthrough" : 0,
					"enablehscroll" : 0,
					"enablevscroll" : 0,
					"id" : "obj-35",
					"lockeddragscroll" : 0,
					"maxclass" : "bpatcher",
					"name" : "j.nav.oscroute.module.maxpat",
					"numinlets" : 1,
					"numoutlets" : 2,
					"offset" : [ 0.0, 0.0 ],
					"outlettype" : [ "", "" ],
					"patching_rect" : [ 47.0, 255.0, 170.0, 23.0 ],
					"viewvisibility" : 1
				}

			}
, 			{
				"box" : 				{
					"annotation" : "none",
					"clickmode" : 1,
					"fontname" : "Verdana",
					"fontsize" : 10.0,
					"id" : "obj-36",
					"keymode" : 1,
					"maxclass" : "textedit",
					"numinlets" : 1,
					"numoutlets" : 4,
					"outlettype" : [ "", "int", "", "" ],
					"outputmode" : 1,
					"parameter_enable" : 0,
					"patching_rect" : [ 360.0, 255.0, 151.0, 19.0 ],
					"style" : "",
					"text" : "none"
				}

			}
, 			{
				"box" : 				{
					"id" : "obj-27",
					"maxclass" : "newobj",
					"numinlets" : 1,
					"numoutlets" : 4,
					"outlettype" : [ "", "", "", "" ],
					"patching_rect" : [ 219.0, 180.0, 121.0, 22.0 ],
					"style" : "",
					"text" : "j.remote oscreceive2"
				}

			}
, 			{
				"box" : 				{
					"id" : "obj-28",
					"maxclass" : "newobj",
					"numinlets" : 2,
					"numoutlets" : 2,
					"outlettype" : [ "", "" ],
					"patching_rect" : [ 517.0, 180.0, 61.0, 22.0 ],
					"style" : "",
					"text" : "route text"
				}

			}
, 			{
				"box" : 				{
					"id" : "obj-29",
					"maxclass" : "newobj",
					"numinlets" : 1,
					"numoutlets" : 4,
					"outlettype" : [ "", "", "", "" ],
					"patching_rect" : [ 517.0, 210.0, 105.0, 22.0 ],
					"style" : "",
					"text" : "j.remote oscdest2"
				}

			}
, 			{
				"box" : 				{
					"args" : [ "#0-route1" ],
					"bgmode" : 0,
					"border" : 0,
					"clickthrough" : 0,
					"enablehscroll" : 0,
					"enablevscroll" : 0,
					"id" : "obj-30",
					"lockeddragscroll" : 0,
					"maxclass" : "bpatcher",
					"name" : "j.nav.oscroute.module.maxpat",
					"numinlets" : 1,
					"numoutlets" : 2,
					"offset" : [ 0.0, 0.0 ],
					"outlettype" : [ "", "" ],
					"patching_rect" : [ 47.0, 180.0, 170.0, 23.0 ],
					"viewvisibility" : 1
				}

			}
, 			{
				"box" : 				{
					"annotation" : "none",
					"clickmode" : 1,
					"fontname" : "Verdana",
					"fontsize" : 10.0,
					"id" : "obj-31",
					"keymode" : 1,
					"maxclass" : "textedit",
					"numinlets" : 1,
					"numoutlets" : 4,
					"outlettype" : [ "", "int", "", "" ],
					"outputmode" : 1,
					"parameter_enable" : 0,
					"patching_rect" : [ 360.0, 180.0, 151.0, 19.0 ],
					"style" : "",
					"text" : "none"
				}

			}
, 			{
				"box" : 				{
					"id" : "obj-7",
					"maxclass" : "newobj",
					"numinlets" : 1,
					"numoutlets" : 4,
					"outlettype" : [ "", "", "", "" ],
					"patching_rect" : [ 219.0, 101.0, 121.0, 22.0 ],
					"style" : "",
					"text" : "j.remote oscreceive1"
				}

			}
, 			{
				"box" : 				{
					"id" : "obj-24",
					"maxclass" : "newobj",
					"numinlets" : 2,
					"numoutlets" : 2,
					"outlettype" : [ "", "" ],
					"patching_rect" : [ 517.0, 101.0, 61.0, 22.0 ],
					"style" : "",
					"text" : "route text"
				}

			}
, 			{
				"box" : 				{
					"id" : "obj-25",
					"maxclass" : "newobj",
					"numinlets" : 1,
					"numoutlets" : 4,
					"outlettype" : [ "", "", "", "" ],
					"patching_rect" : [ 517.0, 131.0, 105.0, 22.0 ],
					"style" : "",
					"text" : "j.remote oscdest1"
				}

			}
, 			{
				"box" : 				{
					"args" : [ "#0-route1" ],
					"bgmode" : 0,
					"border" : 0,
					"clickthrough" : 0,
					"enablehscroll" : 0,
					"enablevscroll" : 0,
					"id" : "obj-6",
					"lockeddragscroll" : 0,
					"maxclass" : "bpatcher",
					"name" : "j.nav.oscroute.module.maxpat",
					"numinlets" : 1,
					"numoutlets" : 2,
					"offset" : [ 0.0, 0.0 ],
					"outlettype" : [ "", "" ],
					"patching_rect" : [ 47.0, 101.0, 170.0, 23.0 ],
					"viewvisibility" : 1
				}

			}
, 			{
				"box" : 				{
					"annotation" : "none",
					"clickmode" : 1,
					"fontname" : "Verdana",
					"fontsize" : 10.0,
					"id" : "obj-1",
					"keymode" : 1,
					"maxclass" : "textedit",
					"numinlets" : 1,
					"numoutlets" : 4,
					"outlettype" : [ "", "int", "", "" ],
					"outputmode" : 1,
					"parameter_enable" : 0,
					"patching_rect" : [ 360.0, 101.0, 151.0, 19.0 ],
					"style" : "",
					"text" : "none"
				}

			}
 ],
		"lines" : [ 			{
				"patchline" : 				{
					"destination" : [ "obj-24", 0 ],
					"disabled" : 0,
					"hidden" : 0,
					"source" : [ "obj-1", 0 ]
				}

			}
, 			{
				"patchline" : 				{
					"destination" : [ "obj-25", 0 ],
					"disabled" : 0,
					"hidden" : 0,
					"source" : [ "obj-24", 0 ]
				}

			}
, 			{
				"patchline" : 				{
					"destination" : [ "obj-1", 0 ],
					"disabled" : 0,
					"hidden" : 0,
					"source" : [ "obj-25", 0 ]
				}

			}
, 			{
				"patchline" : 				{
					"destination" : [ "obj-30", 0 ],
					"disabled" : 0,
					"hidden" : 0,
					"source" : [ "obj-27", 0 ]
				}

			}
, 			{
				"patchline" : 				{
					"destination" : [ "obj-29", 0 ],
					"disabled" : 0,
					"hidden" : 0,
					"source" : [ "obj-28", 0 ]
				}

			}
, 			{
				"patchline" : 				{
					"destination" : [ "obj-31", 0 ],
					"disabled" : 0,
					"hidden" : 0,
					"source" : [ "obj-29", 0 ]
				}

			}
, 			{
				"patchline" : 				{
					"destination" : [ "obj-27", 0 ],
					"disabled" : 0,
					"hidden" : 0,
					"source" : [ "obj-30", 0 ]
				}

			}
, 			{
				"patchline" : 				{
					"destination" : [ "obj-28", 0 ],
					"disabled" : 0,
					"hidden" : 0,
					"source" : [ "obj-31", 0 ]
				}

			}
, 			{
				"patchline" : 				{
					"destination" : [ "obj-35", 0 ],
					"disabled" : 0,
					"hidden" : 0,
					"source" : [ "obj-32", 0 ]
				}

			}
, 			{
				"patchline" : 				{
					"destination" : [ "obj-34", 0 ],
					"disabled" : 0,
					"hidden" : 0,
					"source" : [ "obj-33", 0 ]
				}

			}
, 			{
				"patchline" : 				{
					"destination" : [ "obj-36", 0 ],
					"disabled" : 0,
					"hidden" : 0,
					"source" : [ "obj-34", 0 ]
				}

			}
, 			{
				"patchline" : 				{
					"destination" : [ "obj-32", 0 ],
					"disabled" : 0,
					"hidden" : 0,
					"source" : [ "obj-35", 0 ]
				}

			}
, 			{
				"patchline" : 				{
					"destination" : [ "obj-33", 0 ],
					"disabled" : 0,
					"hidden" : 0,
					"source" : [ "obj-36", 0 ]
				}

			}
, 			{
				"patchline" : 				{
					"destination" : [ "obj-40", 0 ],
					"disabled" : 0,
					"hidden" : 0,
					"source" : [ "obj-37", 0 ]
				}

			}
, 			{
				"patchline" : 				{
					"destination" : [ "obj-39", 0 ],
					"disabled" : 0,
					"hidden" : 0,
					"source" : [ "obj-38", 0 ]
				}

			}
, 			{
				"patchline" : 				{
					"destination" : [ "obj-41", 0 ],
					"disabled" : 0,
					"hidden" : 0,
					"source" : [ "obj-39", 0 ]
				}

			}
, 			{
				"patchline" : 				{
					"destination" : [ "obj-37", 0 ],
					"disabled" : 0,
					"hidden" : 0,
					"source" : [ "obj-40", 0 ]
				}

			}
, 			{
				"patchline" : 				{
					"destination" : [ "obj-38", 0 ],
					"disabled" : 0,
					"hidden" : 0,
					"source" : [ "obj-41", 0 ]
				}

			}
, 			{
				"patchline" : 				{
					"destination" : [ "obj-45", 0 ],
					"disabled" : 0,
					"hidden" : 0,
					"source" : [ "obj-42", 0 ]
				}

			}
, 			{
				"patchline" : 				{
					"destination" : [ "obj-44", 0 ],
					"disabled" : 0,
					"hidden" : 0,
					"source" : [ "obj-43", 0 ]
				}

			}
, 			{
				"patchline" : 				{
					"destination" : [ "obj-46", 0 ],
					"disabled" : 0,
					"hidden" : 0,
					"source" : [ "obj-44", 0 ]
				}

			}
, 			{
				"patchline" : 				{
					"destination" : [ "obj-42", 0 ],
					"disabled" : 0,
					"hidden" : 0,
					"source" : [ "obj-45", 0 ]
				}

			}
, 			{
				"patchline" : 				{
					"destination" : [ "obj-43", 0 ],
					"disabled" : 0,
					"hidden" : 0,
					"source" : [ "obj-46", 0 ]
				}

			}
, 			{
				"patchline" : 				{
					"destination" : [ "obj-50", 0 ],
					"disabled" : 0,
					"hidden" : 0,
					"source" : [ "obj-47", 0 ]
				}

			}
, 			{
				"patchline" : 				{
					"destination" : [ "obj-49", 0 ],
					"disabled" : 0,
					"hidden" : 0,
					"source" : [ "obj-48", 0 ]
				}

			}
, 			{
				"patchline" : 				{
					"destination" : [ "obj-51", 0 ],
					"disabled" : 0,
					"hidden" : 0,
					"source" : [ "obj-49", 0 ]
				}

			}
, 			{
				"patchline" : 				{
					"destination" : [ "obj-47", 0 ],
					"disabled" : 0,
					"hidden" : 0,
					"source" : [ "obj-50", 0 ]
				}

			}
, 			{
				"patchline" : 				{
					"destination" : [ "obj-48", 0 ],
					"disabled" : 0,
					"hidden" : 0,
					"source" : [ "obj-51", 0 ]
				}

			}
, 			{
				"patchline" : 				{
					"destination" : [ "obj-55", 0 ],
					"disabled" : 0,
					"hidden" : 0,
					"source" : [ "obj-52", 0 ]
				}

			}
, 			{
				"patchline" : 				{
					"destination" : [ "obj-54", 0 ],
					"disabled" : 0,
					"hidden" : 0,
					"source" : [ "obj-53", 0 ]
				}

			}
, 			{
				"patchline" : 				{
					"destination" : [ "obj-56", 0 ],
					"disabled" : 0,
					"hidden" : 0,
					"source" : [ "obj-54", 0 ]
				}

			}
, 			{
				"patchline" : 				{
					"destination" : [ "obj-52", 0 ],
					"disabled" : 0,
					"hidden" : 0,
					"source" : [ "obj-55", 0 ]
				}

			}
, 			{
				"patchline" : 				{
					"destination" : [ "obj-53", 0 ],
					"disabled" : 0,
					"hidden" : 0,
					"source" : [ "obj-56", 0 ]
				}

			}
, 			{
				"patchline" : 				{
					"destination" : [ "obj-60", 0 ],
					"disabled" : 0,
					"hidden" : 0,
					"source" : [ "obj-57", 0 ]
				}

			}
, 			{
				"patchline" : 				{
					"destination" : [ "obj-59", 0 ],
					"disabled" : 0,
					"hidden" : 0,
					"source" : [ "obj-58", 0 ]
				}

			}
, 			{
				"patchline" : 				{
					"destination" : [ "obj-61", 0 ],
					"disabled" : 0,
					"hidden" : 0,
					"source" : [ "obj-59", 0 ]
				}

			}
, 			{
				"patchline" : 				{
					"destination" : [ "obj-7", 0 ],
					"disabled" : 0,
					"hidden" : 0,
					"source" : [ "obj-6", 0 ]
				}

			}
, 			{
				"patchline" : 				{
					"destination" : [ "obj-57", 0 ],
					"disabled" : 0,
					"hidden" : 0,
					"source" : [ "obj-60", 0 ]
				}

			}
, 			{
				"patchline" : 				{
					"destination" : [ "obj-58", 0 ],
					"disabled" : 0,
					"hidden" : 0,
					"source" : [ "obj-61", 0 ]
				}

			}
, 			{
				"patchline" : 				{
					"destination" : [ "obj-6", 0 ],
					"disabled" : 0,
					"hidden" : 0,
					"source" : [ "obj-7", 0 ]
				}

			}
 ],
		"parameters" : 		{
			"obj-60::obj-3::obj-10::obj-196" : [ "live.text[6]", "live.text", 0 ],
			"obj-50::obj-3::obj-10::obj-196" : [ "live.text[2]", "live.text", 0 ],
			"obj-35::obj-3::obj-182" : [ "live.text[11]", "live.text[4]", 0 ],
			"obj-30::obj-3::obj-10::obj-196" : [ "live.text[14]", "live.text", 0 ],
			"obj-45::obj-3::obj-10::obj-196" : [ "live.text[9]", "live.text", 0 ],
			"obj-40::obj-3::obj-182" : [ "live.text[7]", "live.text[4]", 0 ],
			"obj-35::obj-3::obj-10::obj-10::obj-145" : [ "live.menu[6]", "live.menu", 0 ],
			"obj-60::obj-3::obj-10::obj-10::obj-145" : [ "live.menu[3]", "live.menu", 0 ],
			"obj-30::obj-3::obj-182" : [ "live.text[13]", "live.text[4]", 0 ],
			"obj-6::obj-3::obj-10::obj-196" : [ "live.text[16]", "live.text", 0 ],
			"obj-55::obj-3::obj-10::obj-10::obj-145" : [ "live.menu[2]", "live.menu", 0 ],
			"obj-50::obj-3::obj-10::obj-10::obj-145" : [ "live.menu[1]", "live.menu", 0 ],
			"obj-30::obj-3::obj-10::obj-10::obj-145" : [ "live.menu[7]", "live.menu", 0 ],
			"obj-6::obj-3::obj-182" : [ "live.text[15]", "live.text[4]", 0 ],
			"obj-55::obj-3::obj-10::obj-196" : [ "live.text[4]", "live.text", 0 ],
			"obj-40::obj-3::obj-10::obj-10::obj-145" : [ "live.menu[5]", "live.menu", 0 ],
			"obj-45::obj-3::obj-10::obj-10::obj-145" : [ "live.menu[4]", "live.menu", 0 ],
			"obj-50::obj-3::obj-182" : [ "live.text[1]", "live.text[4]", 0 ],
			"obj-40::obj-3::obj-10::obj-196" : [ "live.text[10]", "live.text", 0 ],
			"obj-6::obj-3::obj-10::obj-10::obj-145" : [ "live.menu[8]", "live.menu", 0 ],
			"obj-60::obj-3::obj-182" : [ "live.text[5]", "live.text[4]", 0 ],
			"obj-45::obj-3::obj-182" : [ "live.text[8]", "live.text[4]", 0 ],
			"obj-55::obj-3::obj-182" : [ "live.text[3]", "live.text[4]", 0 ],
			"obj-35::obj-3::obj-10::obj-196" : [ "live.text[12]", "live.text", 0 ]
		}
,
		"dependency_cache" : [ 			{
				"name" : "j.nav.oscroute.module.maxpat",
				"bootpath" : "~/src/max/Nav/Jamoma-v1/j.nav.oscroute",
				"type" : "JSON",
				"implicit" : 1
			}
, 			{
				"name" : "j.nav.oscroute.model.maxpat",
				"bootpath" : "~/src/max/Nav/Jamoma-v1/j.nav.oscroute",
				"type" : "JSON",
				"implicit" : 1
			}
, 			{
				"name" : "thru.maxpat",
				"bootpath" : "C74:/patchers/m4l/Pluggo for Live resources/patches",
				"type" : "JSON",
				"implicit" : 1
			}
, 			{
				"name" : "j.nav.oscroute.view.maxpat",
				"bootpath" : "~/src/max/Nav/Jamoma-v1/j.nav.oscroute",
				"type" : "JSON",
				"implicit" : 1
			}
, 			{
				"name" : "j.namespacebrowser.view.maxpat",
				"bootpath" : "~/Documents/Max 7/Packages/Jamoma/patchers/components/namespace/namespacebrowser",
				"type" : "JSON",
				"implicit" : 1
			}
, 			{
				"name" : "j.get_onscreen_position.js",
				"bootpath" : "~/Documents/Max 7/Packages/Jamoma/javascript",
				"type" : "TEXT",
				"implicit" : 1
			}
, 			{
				"name" : "j.model.mxo",
				"type" : "iLaX"
			}
, 			{
				"name" : "j.parameter.mxo",
				"type" : "iLaX"
			}
, 			{
				"name" : "j.parameter_array.mxo",
				"type" : "iLaX"
			}
, 			{
				"name" : "j.receive.mxo",
				"type" : "iLaX"
			}
, 			{
				"name" : "j.map.mxo",
				"type" : "iLaX"
			}
, 			{
				"name" : "j.message.mxo",
				"type" : "iLaX"
			}
, 			{
				"name" : "j.stats.mxo",
				"type" : "iLaX"
			}
, 			{
				"name" : "j.out.mxo",
				"type" : "iLaX"
			}
, 			{
				"name" : "j.view.mxo",
				"type" : "iLaX"
			}
, 			{
				"name" : "j.remote.mxo",
				"type" : "iLaX"
			}
, 			{
				"name" : "j.remote_array.mxo",
				"type" : "iLaX"
			}
, 			{
				"name" : "j.send.mxo",
				"type" : "iLaX"
			}
, 			{
				"name" : "j.init.mxo",
				"type" : "iLaX"
			}
 ],
		"autosave" : 0
	}

}
