{
	"patcher" : 	{
		"fileversion" : 1,
		"appversion" : 		{
			"major" : 8,
			"minor" : 1,
			"revision" : 11,
			"architecture" : "x64",
			"modernui" : 1
		}
,
		"classnamespace" : "box",
		"rect" : [ 410.0, 468.0, 640.0, 480.0 ],
		"bglocked" : 0,
		"openinpresentation" : 1,
		"default_fontsize" : 12.0,
		"default_fontface" : 0,
		"default_fontname" : "Arial",
		"gridonopen" : 1,
		"gridsize" : [ 15.0, 15.0 ],
		"gridsnaponopen" : 1,
		"objectsnaponopen" : 1,
		"statusbarvisible" : 2,
		"toolbarvisible" : 1,
		"lefttoolbarpinned" : 0,
		"toptoolbarpinned" : 0,
		"righttoolbarpinned" : 0,
		"bottomtoolbarpinned" : 0,
		"toolbars_unpinned_last_save" : 0,
		"tallnewobj" : 0,
		"boxanimatetime" : 200,
		"enablehscroll" : 1,
		"enablevscroll" : 1,
		"devicewidth" : 0.0,
		"description" : "",
		"digest" : "",
		"tags" : "",
		"style" : "",
		"subpatcher_template" : "",
		"assistshowspatchername" : 0,
		"boxes" : [ 			{
				"box" : 				{
					"annotation" : "none",
					"fontsize" : 11.0,
					"id" : "obj-7",
					"maxclass" : "live.menu",
					"numinlets" : 1,
					"numoutlets" : 3,
					"outlettype" : [ "", "", "float" ],
					"parameter_enable" : 1,
					"patching_rect" : [ 180.0, 122.5, 100.0, 17.0 ],
					"presentation" : 1,
					"presentation_rect" : [ 7.5, 33.5, 135.0, 17.0 ],
					"saved_attribute_attributes" : 					{
						"valueof" : 						{
							"parameter_enum" : [ "C", "C#", "Db", "D", "D#", "Eb", "E", "F", "F#", "Gb", "G", "G#", "Ab", "A", "A#", "Bb", "B" ],
							"parameter_info" : "none",
							"parameter_initial" : [ 1.0 ],
							"parameter_initial_enable" : 1,
							"parameter_longname" : "live.menu",
							"parameter_mmax" : 16,
							"parameter_shortname" : "live.menu",
							"parameter_type" : 2
						}

					}
,
					"varname" : "live.menu"
				}

			}
, 			{
				"box" : 				{
					"fontname" : "Arial",
					"fontsize" : 12.0,
					"id" : "obj-171",
					"linecount" : 12,
					"maxclass" : "comment",
					"numinlets" : 1,
					"numoutlets" : 0,
					"patching_rect" : [ 463.0, 47.5, 108.0, 167.0 ],
					"text" : "1. major\n2. harmonic minor\n3. phrygian major\n4. locrian major\n5. natural minor\n6. dorian mode\n7. mixolydian\n8. phrygian\n9. lydian\n10. locrian\n11. gypsy\n12. whole tone"
				}

			}
, 			{
				"box" : 				{
					"color" : [ 0.941176, 0.690196, 0.196078, 1.0 ],
					"id" : "obj-11",
					"maxclass" : "newobj",
					"numinlets" : 1,
					"numoutlets" : 4,
					"outlettype" : [ "", "", "", "" ],
					"patching_rect" : [ 330.0, 120.0, 81.0, 22.0 ],
					"text" : "j.remote base"
				}

			}
, 			{
				"box" : 				{
					"comment" : "",
					"id" : "obj-6",
					"index" : 1,
					"maxclass" : "outlet",
					"numinlets" : 1,
					"numoutlets" : 0,
					"patching_rect" : [ 15.0, 285.0, 30.0, 30.0 ]
				}

			}
, 			{
				"box" : 				{
					"comment" : "",
					"id" : "obj-5",
					"index" : 1,
					"maxclass" : "inlet",
					"numinlets" : 0,
					"numoutlets" : 1,
					"outlettype" : [ "" ],
					"patching_rect" : [ 15.0, 195.0, 30.0, 30.0 ]
				}

			}
, 			{
				"box" : 				{
					"color" : [ 0.941176, 0.690196, 0.196078, 1.0 ],
					"id" : "obj-4",
					"maxclass" : "newobj",
					"numinlets" : 1,
					"numoutlets" : 2,
					"outlettype" : [ "", "" ],
					"patching_rect" : [ 15.0, 240.0, 41.0, 22.0 ],
					"text" : "j.view"
				}

			}
, 			{
				"box" : 				{
					"fontface" : 0,
					"id" : "obj-3",
					"maxclass" : "j.ui",
					"numinlets" : 1,
					"numoutlets" : 1,
					"outlettype" : [ "" ],
					"patching_rect" : [ 0.0, 0.0, 150.0, 105.0 ],
					"presentation" : 1,
					"presentation_rect" : [ 0.0, 0.0, 150.0, 70.0 ],
					"text" : "/#1"
				}

			}
 ],
		"lines" : [ 			{
				"patchline" : 				{
					"destination" : [ "obj-7", 0 ],
					"source" : [ "obj-11", 0 ]
				}

			}
, 			{
				"patchline" : 				{
					"destination" : [ "obj-6", 0 ],
					"source" : [ "obj-4", 0 ]
				}

			}
, 			{
				"patchline" : 				{
					"destination" : [ "obj-4", 0 ],
					"source" : [ "obj-5", 0 ]
				}

			}
, 			{
				"patchline" : 				{
					"destination" : [ "obj-11", 0 ],
					"source" : [ "obj-7", 0 ]
				}

			}
 ]
	}

}
